<svg width="20" height="20" viewBox="0 0 20 20" fill="none" xmlns="http://www.w3.org/2000/svg">
<g id="vuesax/outline/lock">
<g id="lock">
<path id="Vector" d="M15 8.95834C14.6583 8.95834 14.375 8.675 14.375 8.33334V6.66667C14.375 4.04167 13.6333 2.29167 10 2.29167C6.36667 2.29167 5.625 4.04167 5.625 6.66667V8.33334C5.625 8.675 5.34167 8.95834 5 8.95834C4.65833 8.95834 4.375 8.675 4.375 8.33334V6.66667C4.375 4.25001 4.95833 1.04167 10 1.04167C15.0417 1.04167 15.625 4.25001 15.625 6.66667V8.33334C15.625 8.675 15.3417 8.95834 15 8.95834Z" fill="#9DA4AE"/>
<path id="Vector_2" d="M14.1666 18.9583H5.83329C2.15829 18.9583 1.04163 17.8417 1.04163 14.1667V12.5C1.04163 8.825 2.15829 7.70833 5.83329 7.70833H14.1666C17.8416 7.70833 18.9583 8.825 18.9583 12.5V14.1667C18.9583 17.8417 17.8416 18.9583 14.1666 18.9583ZM5.83329 8.95833C2.84996 8.95833 2.29163 9.52499 2.29163 12.5V14.1667C2.29163 17.1417 2.84996 17.7083 5.83329 17.7083H14.1666C17.15 17.7083 17.7083 17.1417 17.7083 14.1667V12.5C17.7083 9.52499 17.15 8.95833 14.1666 8.95833H5.83329Z" fill="#9DA4AE"/>
<path id="Vector_3" d="M6.66671 14.1667C6.55837 14.1667 6.45004 14.1417 6.35004 14.1C6.2417 14.0583 6.15838 14 6.07505 13.925C5.92505 13.7667 5.83337 13.5583 5.83337 13.3333C5.83337 13.225 5.85836 13.1167 5.90003 13.0167C5.9417 12.9083 6.00005 12.825 6.07505 12.7417C6.15838 12.6667 6.2417 12.6083 6.35004 12.5667C6.65004 12.4333 7.02503 12.5083 7.25837 12.7417C7.33337 12.825 7.39172 12.9167 7.43339 13.0167C7.47505 13.1167 7.50004 13.225 7.50004 13.3333C7.50004 13.55 7.40837 13.7667 7.25837 13.925C7.10003 14.075 6.88337 14.1667 6.66671 14.1667Z" fill="#9DA4AE"/>
<path id="Vector_4" d="M9.99996 14.1667C9.78329 14.1667 9.56663 14.075 9.4083 13.925C9.2583 13.7667 9.16663 13.5584 9.16663 13.3334C9.16663 13.225 9.18328 13.1167 9.23328 13.0167C9.27495 12.9167 9.3333 12.825 9.4083 12.7417C9.59997 12.55 9.89163 12.4583 10.1583 12.5167C10.2166 12.525 10.2666 12.5417 10.3166 12.5667C10.3666 12.5833 10.4166 12.6084 10.4666 12.6417C10.5083 12.6667 10.55 12.7084 10.5916 12.7417C10.6666 12.825 10.725 12.9167 10.7666 13.0167C10.8083 13.1167 10.8333 13.225 10.8333 13.3334C10.8333 13.5584 10.7416 13.7667 10.5916 13.925C10.55 13.9584 10.5083 13.9917 10.4666 14.025C10.4166 14.0583 10.3666 14.0834 10.3166 14.1C10.2666 14.125 10.2166 14.1417 10.1583 14.15C10.1083 14.1584 10.05 14.1667 9.99996 14.1667Z" fill="#9DA4AE"/>
<path id="Vector_5" d="M13.3333 14.1667C13.1083 14.1667 12.9 14.075 12.7417 13.925C12.6667 13.8417 12.6083 13.75 12.5667 13.65C12.525 13.55 12.5 13.4417 12.5 13.3334C12.5 13.1167 12.5917 12.9 12.7417 12.7417C12.7833 12.7084 12.825 12.675 12.8667 12.6417C12.9167 12.6084 12.9667 12.5833 13.0167 12.5667C13.0667 12.5417 13.1167 12.525 13.1667 12.5167C13.4417 12.4583 13.725 12.55 13.925 12.7417C14.075 12.9 14.1667 13.1084 14.1667 13.3334C14.1667 13.4417 14.1417 13.55 14.1 13.65C14.0583 13.7584 14 13.8417 13.925 13.925C13.7667 14.075 13.55 14.1667 13.3333 14.1667Z" fill="#9DA4AE"/>
</g>
</g>
</svg>
