<svg xmlns="http://www.w3.org/2000/svg" id="Capa_1" enable-background="new 0 0 511.989 511.989" height="512" viewBox="0 0 511.989 511.989" width="512"><g><g id="Page-1_61_"><g id="_x30_62---Mineshaft"><path id="Shape_282_" d="m479.296 213.858c-2.108-7.315-8.789-12.362-16.401-12.39h-15.539l-36.276-116.011c-2.201-7.145-8.814-12.013-16.29-11.989h-15.249l-26.453-47.625c-2.246-4.045-6.037-7.005-10.506-8.202s-9.233-.528-13.199 1.853l-42.095 25.25-28.954-17.365c-7.398-4.439-16.945-2.659-22.246 4.147l-41.984 53.948-5.973-1.502c-7.947-1.987-16.185 1.953-19.627 9.387l-46.481 99.575h-22.614c-6.75.002-12.865 3.983-15.599 10.155l-28.732 64.64-10.812-3.61c-8.417-2.753-17.547 1.355-21.069 9.481l-22.51 52.514c-1.126 2.635-.854 5.66.724 8.053 1.578 2.392 4.252 3.833 7.118 3.834h49.203c0 9.426 7.641 17.067 17.067 17.067h55.194c4.526 0 8.867-1.798 12.068-4.999s4.999-7.542 4.999-12.068h46.643l-7.962 20.395h-20.796c-4.713 0-8.533 3.82-8.533 8.533s3.821 8.533 8.533 8.533h14.157l-9.975 25.6h-31.147c-4.713 0-8.533 3.821-8.533 8.533s3.821 8.533 8.533 8.533h24.508l-13.295 34.133h-38.263c-4.713 0-8.533 3.821-8.533 8.533 0 4.713 3.821 8.533 8.533 8.533h31.625l-.896 2.295c-2.061 5.25-1.396 11.179 1.778 15.841s8.446 7.456 14.086 7.463h32.256c7.646-.03 14.346-5.125 16.418-12.484l3.644-13.116h126.447l3.644 13.124c2.076 7.356 8.775 12.447 16.418 12.476h32.256c5.624-.013 10.88-2.796 14.052-7.44s3.853-10.552 1.82-15.796l-.853-2.364h31.573c4.713 0 8.533-3.821 8.533-8.533 0-4.713-3.82-8.533-8.533-8.533h-38.255l-13.269-34.133h24.474c4.713 0 8.533-3.82 8.533-8.533s-3.82-8.533-8.533-8.533h-31.104l-9.958-25.6h14.097c4.713 0 8.533-3.821 8.533-8.533s-3.82-8.533-8.533-8.533h-20.727l-7.927-20.395h52.727c-.067 4.526 1.693 8.887 4.883 12.099 3.189 3.212 7.538 5.003 12.065 4.968h41.856c4.526.016 8.87-1.779 12.065-4.985s4.974-7.556 4.942-12.082h22.4c2.675-.002 5.195-1.259 6.806-3.395s2.127-4.904 1.394-7.477zm-404.514 124.194v-.043l15.36-25.6h24.474l15.36 25.6zm274.133-17.118-15.053-128h16.947l15.053 128zm-112.981 54.528h74.24l7.117 25.6h-88.474zm69.555-17.066h-64.768l5.675-20.395h53.419zm-91.051-37.462 15.053-128h87.185l15.053 128zm-26.709-145.066v-17.067h170.667v17.067zm7.586 17.066h16.947l-15.053 128h-16.947zm-37.786 284.928 5.342-13.722.051-.119 49.075-126.02h16.64l-38.861 139.861zm57.054-25.6 9.489-34.133h97.98l9.489 34.133zm141.79 25.6-38.886-139.861h16.725l29.107 74.846.043.119 19.78 50.927.145.375 5.316 13.594zm65.818-139.844 10.914-27.307 14.822-4.932 16.119 32.222zm52.411-17.067-11.392-22.784c-3.826-7.57-12.616-11.199-20.668-8.533l-14.848 4.941c-4.741 1.585-8.55 5.168-10.419 9.805l-6.622 16.555h-27.605l-15.36-130.773c4.842-3.143 7.767-8.521 7.774-14.293v-17.067c0-9.426-7.641-17.067-17.067-17.067h-170.666c-9.426 0-17.067 7.641-17.067 17.067v17.067c.013 5.777 2.948 11.156 7.799 14.293l-15.36 130.773h-23.45l-10.385-17.306c-3.094-5.131-8.642-8.276-14.635-8.294h-24.472c-5.992.019-11.54 3.163-14.635 8.294l-10.385 17.306h-43.665l17.408-40.619 18.15 6.05c4.168 1.39 8.71-.611 10.496-4.625l31.881-71.74h14.618l-2.295 4.932c-1.993 4.27-.148 9.347 4.122 11.341 2.052.956 4.399 1.059 6.526.284s3.859-2.362 4.815-4.414l56.755-121.626 61.44 15.36c2.995.853 6.216.007 8.406-2.206 2.189-2.214 2.999-5.445 2.113-8.43s-3.328-5.25-6.371-5.91l-37.325-9.335 37.35-47.983 21.146 12.681-19.106 11.46c-4.041 2.427-5.35 7.671-2.923 11.712s7.671 5.35 11.712 2.923l77.764-46.66 21.862 39.339h-35.755c-4.713 0-8.533 3.821-8.533 8.533s3.82 8.533 8.533 8.533h70.528l34.679 110.933h-11.341c-4.713 0-8.533 3.82-8.533 8.533s3.82 8.533 8.533 8.533h44.766l29.252 102.4z" fill="#1e347a"/></g></g></g></svg>