<svg id="Слой_1" enable-background="new 0 0 160 160" viewBox="0 0 160 160" xmlns="http://www.w3.org/2000/svg" height="100px" width="100px" transform="rotate(0) scale(1, 1)"><g fill="#1e347b"><path d="m135 143c1.104 0 2-.896 2-2s-.896-2-2-2h-10v-79h6.816c2.237 0 4.164-1.441 4.796-3.587s-.206-4.402-2.085-5.614l-50.567-32.624c-1.191-.769-2.575-1.175-3.96-1.175s-2.769.406-3.96 1.175l-18.04 11.638v-4.813c0-2.206-1.794-4-4-4h-9c-2.206 0-4 1.794-4 4v15.781l-15.526 10.017c-1.88 1.212-2.718 3.469-2.086 5.614.632 2.147 2.559 3.588 4.796 3.588h6.816v3c0 1.104.896 2 2 2s2-.896 2-2v-5c0-1.104-.896-2-2-2h-8.816c-.675 0-.896-.502-.959-.717-.063-.216-.15-.757.417-1.123l16.442-10.608c.571-.369.916-1.002.916-1.681v-16.871h9v8.484c0 .732.4 1.406 1.043 1.756.644.35 1.426.321 2.042-.076l21.125-13.629c1.086-.701 2.496-.701 3.582 0l50.567 32.624c.567.366.48.907.417 1.123-.063.215-.284.717-.959.717h-8.817c-1.104 0-2 .896-2 2v81h-60v-20c0-4.411-3.589-8-8-8h-14v-26.999h9.09c.478 2.833 2.942 5 5.91 5h18c2.967 0 5.431-2.167 5.91-5h4.09v8h-1c-2.206 0-4 1.794-4 4v6c0 2.206 1.794 4 4 4h18c2.206 0 4-1.794 4-4v-6c0-2.206-1.794-4-4-4h-1v-16c0-4.411-3.589-8-8-8h-12.09c-.478-2.833-2.942-5-5.91-5h-7v-3h3.5c3.033 0 5.5-2.467 5.5-5.5s-2.467-5.5-5.5-5.5h-11c-3.033 0-5.5 2.467-5.5 5.5s2.467 5.5 5.5 5.5h3.5v3h-7c-2.967 0-5.431 2.167-5.91 5h-17.09c-4.411 0-8 3.589-8 8v43c0 4.411 3.589 8 8 8h14v12h-6v-7c0-1.104-.896-2-2-2s-2 .896-2 2v7h-10c-1.104 0-2 .896-2 2s.896 2 2 2zm-79-88.5c0-.827.673-1.5 1.5-1.5h11c.827 0 1.5.673 1.5 1.5s-.673 1.5-1.5 1.5h-11c-.827 0-1.5-.673-1.5-1.5zm43.002 47.5h-18.002v-6h18zm-5.002-26v16h-8v-10c0-1.104-.896-2-2-2h-6v-8h12c2.206 0 4 1.794 4 4zm-42-7c0-1.103.897-2 2-2h18c1.103 0 2 .897 2 2v14c0 1.103-.897 2-2 2h-18c-1.103 0-2-.897-2-2zm-5 54h-16c-2.206 0-4-1.794-4-4v-43c0-2.206 1.794-4 4-4h17v8h-11c-1.104 0-2 .896-2 2v31c0 1.104.896 2 2 2h16c2.206 0 4 1.794 4 4v20h-8v-14c0-1.104-.896-2-2-2z"/><path d="m90 108c-2.392 0-10 10.092-10 16.956 0 5.538 4.486 10.044 10 10.044s10-4.506 10-10.044c0-6.864-7.608-16.956-10-16.956zm0 23c-3.309 0-6-2.711-6-6.044 0-4.52 3.939-9.764 6-12.12 2.061 2.356 6 7.601 6 12.12 0 3.333-2.691 6.044-6 6.044z"/></g></svg>