<svg width="44" height="44" viewBox="0 0 44 44" fill="none" xmlns="http://www.w3.org/2000/svg">
<g id="vuesax/outline/arrow-left">
<g id="arrow-left">
<path id="Vector" d="M17.545 34.5035C17.1967 34.5035 16.8483 34.3752 16.5733 34.1002L5.44501 22.9719C4.91335 22.4402 4.91335 21.5602 5.44501 21.0286L16.5733 9.90021C17.105 9.36855 17.985 9.36855 18.5167 9.90021C19.0483 10.4319 19.0483 11.3119 18.5167 11.8435L8.36001 22.0002L18.5167 32.1569C19.0483 32.6886 19.0483 33.5686 18.5167 34.1002C18.26 34.3752 17.8933 34.5035 17.545 34.5035Z" fill="#9DA4AE"/>
<path id="Vector_2" d="M37.5833 23.375H6.72833C5.97667 23.375 5.35333 22.7517 5.35333 22C5.35333 21.2483 5.97667 20.625 6.72833 20.625H37.5833C38.335 20.625 38.9583 21.2483 38.9583 22C38.9583 22.7517 38.335 23.375 37.5833 23.375Z" fill="#9DA4AE"/>
</g>
</g>
</svg>
