<svg width="20" height="20" viewBox="0 0 20 20" fill="none" xmlns="http://www.w3.org/2000/svg">
<g id="mail-01">
<path id="Icon" d="M1.66663 5.83334L8.47073 10.5962C9.0217 10.9819 9.29719 11.1747 9.59685 11.2494C9.86154 11.3154 10.1384 11.3154 10.4031 11.2494C10.7027 11.1747 10.9782 10.9819 11.5292 10.5962L18.3333 5.83334M5.66663 16.6667H14.3333C15.7334 16.6667 16.4335 16.6667 16.9683 16.3942C17.4387 16.1545 17.8211 15.7721 18.0608 15.3017C18.3333 14.7669 18.3333 14.0668 18.3333 12.6667V7.33334C18.3333 5.93321 18.3333 5.23315 18.0608 4.69837C17.8211 4.22796 17.4387 3.84551 16.9683 3.60583C16.4335 3.33334 15.7334 3.33334 14.3333 3.33334H5.66663C4.26649 3.33334 3.56643 3.33334 3.03165 3.60583C2.56124 3.84551 2.17879 4.22796 1.93911 4.69837C1.66663 5.23315 1.66663 5.93321 1.66663 7.33334V12.6667C1.66663 14.0668 1.66663 14.7669 1.93911 15.3017C2.17879 15.7721 2.56124 16.1545 3.03165 16.3942C3.56643 16.6667 4.26649 16.6667 5.66663 16.6667Z" stroke="#9DA4AE" stroke-width="1.5" stroke-linecap="round" stroke-linejoin="round"/>
</g>
</svg>
