<svg width="136" height="72" viewBox="0 0 136 72" fill="none" xmlns="http://www.w3.org/2000/svg">
<g clip-path="url(#clip0_18_507)">
<path d="M23.7485 36.1191H9.61266L14.4455 27.1269H18.4858L31.0314 5.78073L29.4981 1.61612L26.1934 0.512817H4.36029L0.744751 4.12835V15.9281H7.96547V7.73353H21.977L15.2483 19.0515H10.2342L0.749928 36.9065L2.52662 41.7393L5.76921 43.3347H27.3019L30.9174 39.7191V27.9194H23.7589V36.1191H23.7485Z" fill="#15B5DB"/>
<path d="M90.7811 22.4133L100.571 5.96203L99.0999 1.74563L95.8573 0.518005H70.4087V43.3399H77.6294V29.634H93.4176V43.3399H100.576V26.0288L96.9606 22.4133H90.7811ZM77.6346 22.4133V7.73873H91.5839L82.8403 22.4133H77.6346Z" fill="#15B5DB"/>
<path d="M131.645 0.518005H108.708L105.103 4.13354V39.7295L108.708 43.3451H131.645L135.26 39.7295V4.13354L131.645 0.518005ZM128.04 36.1192H112.314V7.73354H128.04V36.1192Z" fill="#15B5DB"/>
<path d="M50.3056 50.6746L52.1031 52.472L52.072 58.838H48.4772L48.5082 54.2694H35.3877V59.5684L40.6297 68.4H48.5445V63.8314H52.1082V70.1974L50.3108 71.9948H38.8012L31.7928 60.2055V52.472L33.5903 50.6746H50.3056Z" fill="#0E343A"/>
<path d="M56.3661 50.6746H67.7877L69.5851 52.472V70.2026L67.7928 72H56.3713L54.5739 70.2026V52.472L56.3661 50.6746ZM65.9954 54.2694H58.1687V68.4052H65.9954V54.2694Z" fill="#0E343A"/>
<path d="M74.0086 50.6746H85.4302L87.2276 52.472V70.2026L85.4302 72H74.0086L72.2112 70.2026V52.472L74.0086 50.6746ZM83.6328 54.2694H75.806V68.4052H83.6328V54.2694Z" fill="#0E343A"/>
<path d="M89.1442 60.2107V50.6746H92.739V59.5684L97.981 68.4H105.896V63.8314H109.46V70.1974L107.662 71.9948H96.1525L89.1442 60.2107Z" fill="#0E343A"/>
<path d="M63.3693 0.569824H50.1295L44.6182 0.575001H36.8329L33.9321 3.43428V8.4173L39.7905 8.41213H41.6708H47.5707L52.6418 8.40694L58.5416 8.40176H60.4219L66.3114 8.39659L66.3166 3.51198L63.3693 0.569824Z" fill="#0E343A"/>
<path d="M47.5758 16.6533L41.6759 16.6584H36.8949L33.8906 19.554V24.5007H41.6759L47.5758 24.4904H52.6003L58.2877 24.4852V35.4769L52.6003 35.4872H47.5758L41.6759 35.4924H33.8906V40.6826L36.5479 43.3399L44.3695 43.3295L55.8066 43.3243L63.6385 43.314L65.8555 40.8225L66.1197 35.4769V19.5281L62.8771 16.6533H47.5758Z" fill="#0E343A"/>
<path d="M117.755 60.1202C117.755 59.4633 117.916 58.8644 118.236 58.3236C118.556 57.7828 118.987 57.3521 119.528 57.0317C120.069 56.7112 120.668 56.551 121.325 56.551C121.893 56.551 122.418 56.6731 122.899 56.9175C123.384 57.1619 123.784 57.4964 124.101 57.921C124.417 58.3416 124.613 58.8183 124.69 59.3511H123.235C123.155 58.9385 122.933 58.602 122.568 58.3416C122.204 58.0772 121.789 57.945 121.325 57.945C120.924 57.945 120.559 58.0432 120.231 58.2395C119.902 58.4358 119.64 58.6981 119.444 59.0266C119.248 59.3551 119.149 59.7197 119.149 60.1202C119.149 60.5208 119.248 60.8854 119.444 61.2139C119.64 61.5424 119.902 61.8047 120.231 62.001C120.559 62.1973 120.924 62.2955 121.325 62.2955C121.789 62.2955 122.182 62.1653 122.502 61.9049C122.827 61.6405 123.031 61.302 123.115 60.8894H124.569C124.493 61.4222 124.307 61.9009 124.011 62.3255C123.714 62.7461 123.334 63.0786 122.869 63.323C122.408 63.5674 121.893 63.6895 121.325 63.6895C120.668 63.6895 120.069 63.5293 119.528 63.2088C118.987 62.8884 118.556 62.4577 118.236 61.9169C117.916 61.3761 117.755 60.7772 117.755 60.1202ZM121.265 66.4657C120.391 66.4657 119.57 66.3014 118.801 65.9729C118.036 65.6444 117.361 65.1898 116.776 64.6089C116.195 64.024 115.738 63.349 115.406 62.5839C115.077 61.8188 114.915 60.9976 114.919 60.1202C114.923 59.2429 115.089 58.4217 115.418 57.6566C115.75 56.8915 116.207 56.2185 116.788 55.6376C117.369 55.0527 118.042 54.5961 118.807 54.2676C119.572 53.9391 120.391 53.7748 121.265 53.7748C122.142 53.7748 122.963 53.9391 123.728 54.2676C124.497 54.5961 125.17 55.0527 125.747 55.6376C126.328 56.2185 126.783 56.8915 127.111 57.6566C127.44 58.4217 127.606 59.2429 127.61 60.1202C127.614 60.9976 127.452 61.8188 127.123 62.5839C126.795 63.349 126.34 64.024 125.759 64.6089C125.178 65.1898 124.503 65.6444 123.734 65.9729C122.965 66.3014 122.142 66.4657 121.265 66.4657ZM121.265 65.0716C121.95 65.0716 122.592 64.9434 123.193 64.687C123.794 64.4306 124.321 64.0761 124.774 63.6234C125.226 63.1708 125.581 62.646 125.837 62.0491C126.094 61.4482 126.22 60.8073 126.216 60.1263C126.212 59.4412 126.082 58.7983 125.825 58.1974C125.569 57.5965 125.214 57.0697 124.762 56.6171C124.309 56.1644 123.784 55.8099 123.187 55.5535C122.59 55.2971 121.95 55.1689 121.265 55.1689C120.583 55.1689 119.945 55.2971 119.348 55.5535C118.751 55.8099 118.226 56.1664 117.773 56.6231C117.321 57.0757 116.964 57.6025 116.704 58.2034C116.447 58.8003 116.317 59.4412 116.313 60.1263C116.309 60.8033 116.435 61.4422 116.692 62.0431C116.948 62.64 117.303 63.1648 117.755 63.6174C118.212 64.0701 118.739 64.4266 119.336 64.687C119.937 64.9434 120.579 65.0716 121.265 65.0716Z" fill="#15B5DB"/>
</g>
<defs>
<clipPath id="clip0_18_507">
<rect width="134.676" height="72" fill="white" transform="translate(0.661865)"/>
</clipPath>
</defs>
</svg>
