<svg id="Layer_5" enable-background="new 0 0 64 64" height="512" viewBox="0 0 64 64" width="512" xmlns="http://www.w3.org/2000/svg"><path d="m59 15h1.434c1.415 0 2.566-1.151 2.566-2.566 0-.465-.127-.922-.366-1.32l-5.32-8.868c-.461-.769-1.305-1.246-2.201-1.246h-.227c-.896 0-1.739.477-2.2 1.246l-5.32 8.867c-.239.399-.366.855-.366 1.321 0 1.415 1.151 2.566 2.566 2.566h1.434v46h-15v-14.501c7.578-1.828 13-8.628 13-16.499 0-9.374-7.626-17-17-17s-17 7.626-17 17c0 7.871 5.422 14.671 13 16.499v14.501h-15v-46h1.434c1.415 0 2.566-1.151 2.566-2.566 0-.465-.127-.922-.366-1.32l-5.32-8.868c-.461-.769-1.305-1.246-2.201-1.246h-.226c-.896 0-1.739.477-2.2 1.246l-5.32 8.867c-.24.399-.367.855-.367 1.321 0 1.415 1.151 2.566 2.566 2.566h1.434v46h-4v2h62v-2h-4zm-9.434-2c-.312 0-.566-.254-.566-.566 0-.102.028-.203.081-.291l5.32-8.868c.102-.17.288-.275.486-.275h.227c.197 0 .384.105.485.275l5.32 8.868c.053.088.081.189.081.291 0 .312-.254.566-.566.566h-3.434v48h-4v-48zm-32.566 17c0-8.271 6.729-15 15-15s15 6.729 15 15c0 6.782-4.559 12.672-11 14.446v-1.446h1.434c1.415 0 2.566-1.151 2.566-2.566 0-.069-.022-.135-.028-.204 3.15-2.46 5.028-6.224 5.028-10.23 0-7.168-5.832-13-13-13s-13 5.832-13 13c0 4.006 1.878 7.77 5.028 10.23-.006.068-.028.134-.028.204 0 1.415 1.151 2.566 2.566 2.566h1.434v1.446c-6.441-1.774-11-7.664-11-14.446zm11.021 3.022c-.656-.861-1.021-1.915-1.021-3.022 0-2.757 2.243-5 5-5s5 2.243 5 5c0 1.107-.365 2.161-1.021 3.022l-1.666-2.776c-.46-.769-1.304-1.246-2.2-1.246h-.227c-.896 0-1.739.477-2.2 1.246zm3.979-10.022c-3.859 0-7 3.14-7 7 0 1.817.699 3.532 1.938 4.827l-2.098 3.498c-2.418-2.081-3.84-5.114-3.84-8.325 0-6.065 4.935-11 11-11s11 4.935 11 11c0 3.211-1.422 6.244-3.839 8.325l-2.099-3.498c1.239-1.295 1.938-3.01 1.938-4.827 0-3.86-3.141-7-7-7zm-5.434 18c-.312 0-.566-.254-.566-.566 0-.103.027-.202.081-.291l5.32-8.868c.102-.17.288-.275.486-.275h.227c.197 0 .384.105.485.275l5.321 8.869c.053.088.08.188.08.29 0 .312-.254.566-.566.566h-3.434v20h-4v-20zm-23-28c-.312 0-.566-.254-.566-.566 0-.102.028-.203.081-.291l5.32-8.868c.102-.17.288-.275.486-.275h.227c.197 0 .384.105.485.275l5.32 8.868c.053.088.081.189.081.291 0 .312-.254.566-.566.566h-3.434v48h-4v-48z"/></svg>