<?xml version="1.0" encoding="UTF-8"?>
<svg xmlns="http://www.w3.org/2000/svg" id="Layer_3" data-name="Layer 3" viewBox="0 0 64 64" width="512" height="512"><path d="M29,10A19,19,0,1,0,48,29,19.021,19.021,0,0,0,29,10Zm0,36A17,17,0,1,1,46,29,17.019,17.019,0,0,1,29,46Z"/><path d="M35,26H31V18a1,1,0,0,0-1.864-.5l-7,12A1,1,0,0,0,23,31H26.9l-.89,8.9a1,1,0,0,0,.675,1.047A.989.989,0,0,0,27,41a1,1,0,0,0,.852-.476l8-13A1,1,0,0,0,35,26Zm-6.572,9.772L29,30.1A1,1,0,0,0,28,29H24.741L29,21.7V27a1,1,0,0,0,1,1h3.21Z"/><path d="M62,36V33a1,1,0,0,0-1-1H58a1,1,0,0,0-1,1v3H55V33a1,1,0,0,0-1-1H51a1,1,0,0,0-1,1v3a1,1,0,0,0-1,1v4a7,7,0,0,0,4,6.315V53a4,4,0,0,1-8,0V49.855a8.757,8.757,0,0,1,.948-.057,9.086,9.086,0,0,1,1.1.074,1.014,1.014,0,0,0,.858-.318,1,1,0,0,0,.241-.883,8.8,8.8,0,0,1,.493-5.283l-1.844-.776a10.765,10.765,0,0,0-.848,4.206c0,.326.016.653.045.98h-.042a11.021,11.021,0,0,0-10.006,6.439,10.983,10.983,0,0,0-13.9,0,10.987,10.987,0,0,0-11.2-6.37,10.615,10.615,0,0,0,.2-2.038A10.927,10.927,0,0,0,3.818,35.587,10.727,10.727,0,0,0,6.054,29a10.729,10.729,0,0,0-2.236-6.587,10.926,10.926,0,0,0,7.223-10.242,10.615,10.615,0,0,0-.2-2.038,10.99,10.99,0,0,0,11.2-6.37,11.027,11.027,0,0,0,6.951,2.479,11.025,11.025,0,0,0,6.95-2.479A10.974,10.974,0,0,0,47,10.149c-.034.347-.052.691-.052,1.033a10.844,10.844,0,0,0,7.882,10.46,10.819,10.819,0,0,0-2.67,9.561l1.959-.406a8.835,8.835,0,0,1,3.477-8.955,1,1,0,0,0-.5-1.8,8.877,8.877,0,0,1-8.147-8.857,8.77,8.77,0,0,1,.242-2.017,1,1,0,0,0-1.2-1.2,9.062,9.062,0,0,1-2.038.241A8.991,8.991,0,0,1,37.32,1.726a1,1,0,0,0-1.7-.4,9.028,9.028,0,0,1-6.63,2.918,9.028,9.028,0,0,1-6.631-2.918,1,1,0,0,0-1.7.4A8.972,8.972,0,0,1,9.712,7.889a1,1,0,0,0-1.2,1.3,8.835,8.835,0,0,1,.527,2.979A8.93,8.93,0,0,1,1.809,20.9a1,1,0,0,0-.5,1.7A8.791,8.791,0,0,1,4.054,29a8.788,8.788,0,0,1-2.745,6.4,1,1,0,0,0,.5,1.7,8.93,8.93,0,0,1,7.232,8.728,8.835,8.835,0,0,1-.527,2.979,1,1,0,0,0,1.2,1.3,8.96,8.96,0,0,1,10.951,6.163,1,1,0,0,0,1.7.4,8.992,8.992,0,0,1,13.261,0,1,1,0,0,0,1.7-.4A8.826,8.826,0,0,1,39,53.077,10,10,0,0,0,59,53V47.315A7,7,0,0,0,63,41V37A1,1,0,0,0,62,36Zm-3-2h1v2H59Zm2,5H51V38H61Zm-9-5h1v2H52Zm5,19a8,8,0,0,1-16,0V51.292a9.052,9.052,0,0,1,2-.992V53a6,6,0,0,0,12,0V47.92a6.29,6.29,0,0,0,2,0Zm-1-7a5.006,5.006,0,0,1-5-5H61A5.006,5.006,0,0,1,56,46Z"/></svg>
