<svg width="22" height="22" viewBox="0 0 22 22" fill="none" xmlns="http://www.w3.org/2000/svg">
<g id="vuesax/bold/close-circle">
<g id="close-circle">
<path id="Vector" d="M11 1.8335C5.94921 1.8335 1.83337 5.94933 1.83337 11.0002C1.83337 16.051 5.94921 20.1668 11 20.1668C16.0509 20.1668 20.1667 16.051 20.1667 11.0002C20.1667 5.94933 16.0509 1.8335 11 1.8335ZM14.08 13.1085C14.3459 13.3743 14.3459 13.8143 14.08 14.0802C13.9425 14.2177 13.7684 14.2818 13.5942 14.2818C13.42 14.2818 13.2459 14.2177 13.1084 14.0802L11 11.9718L8.89171 14.0802C8.75421 14.2177 8.58004 14.2818 8.40587 14.2818C8.23171 14.2818 8.05754 14.2177 7.92004 14.0802C7.65421 13.8143 7.65421 13.3743 7.92004 13.1085L10.0284 11.0002L7.92004 8.89183C7.65421 8.626 7.65421 8.186 7.92004 7.92016C8.18587 7.65433 8.62587 7.65433 8.89171 7.92016L11 10.0285L13.1084 7.92016C13.3742 7.65433 13.8142 7.65433 14.08 7.92016C14.3459 8.186 14.3459 8.626 14.08 8.89183L11.9717 11.0002L14.08 13.1085Z" fill="#E9524A"/>
</g>
</g>
</svg>
