<svg width="22" height="22" viewBox="0 0 22 22" fill="none" xmlns="http://www.w3.org/2000/svg">
<g id="vuesax/bold/edit">
<g id="edit">
<path id="Vector" d="M14.8409 1.8335H7.15921C3.82254 1.8335 1.83337 3.82266 1.83337 7.15933V14.8318C1.83337 18.1777 3.82254 20.1668 7.15921 20.1668H14.8317C18.1684 20.1668 20.1575 18.1777 20.1575 14.841V7.15933C20.1667 3.82266 18.1775 1.8335 14.8409 1.8335ZM10.0375 16.051C9.77171 16.3168 9.26754 16.5735 8.90087 16.6285L6.64587 16.9493C6.56337 16.9585 6.48087 16.9677 6.39837 16.9677C6.02254 16.9677 5.67421 16.8393 5.42671 16.5918C5.12421 16.2893 4.99587 15.8493 5.06921 15.3635L5.39004 13.1085C5.44504 12.7327 5.69254 12.2377 5.96754 11.9718L10.0559 7.8835C10.1292 8.076 10.2025 8.2685 10.3034 8.4885C10.395 8.681 10.4959 8.88266 10.6059 9.066C10.6975 9.22183 10.7984 9.3685 10.8809 9.4785C10.9817 9.63433 11.1009 9.781 11.1742 9.8635C11.22 9.92766 11.2567 9.9735 11.275 9.99183C11.5042 10.2668 11.77 10.5235 11.9992 10.716C12.0634 10.7802 12.1 10.8168 12.1184 10.826C12.2559 10.936 12.3934 11.046 12.5125 11.1285C12.6592 11.2385 12.8059 11.3393 12.9617 11.4218C13.145 11.5318 13.3467 11.6327 13.5484 11.7335C13.7592 11.8252 13.9517 11.9077 14.1442 11.9718L10.0375 16.051ZM15.9225 10.166L15.0792 11.0185C15.0242 11.0735 14.9509 11.101 14.8775 11.101C14.85 11.101 14.8134 11.101 14.795 11.0918C12.9342 10.5602 11.4492 9.07516 10.9175 7.21433C10.89 7.1135 10.9175 7.0035 10.9909 6.93933L11.8434 6.08683C13.2367 4.6935 14.5659 4.721 15.9317 6.08683C16.6284 6.7835 16.9675 7.45266 16.9675 8.14933C16.9584 8.80933 16.6192 9.46933 15.9225 10.166Z" fill="#15B5DB"/>
</g>
</g>
</svg>
