<?xml version="1.0" encoding="UTF-8"?>
<svg id="Layer_1" data-name="Layer 1" xmlns="http://www.w3.org/2000/svg" viewBox="0 0 841.89 595.28">
  <defs>
    <style>
      .cls-1 {
        fill: #355697;
      }

      .cls-2 {
        fill: #00164f;
      }

      .cls-3 {
        fill: #173c82;
      }
    </style>
  </defs>
  <path class="cls-2" d="M163.07,328.57c-5.19-1.51-9.51-3.59-12.94-6.26l5.26-11.68c7.16,4.98,15.19,7.47,24.1,7.47,4.63,0,8.19-.75,10.68-2.26,2.49-1.51,3.74-3.59,3.74-6.26,0-2.38-1.14-4.24-3.42-5.58-2.28-1.33-6.33-2.63-12.15-3.89-6.53-1.33-11.73-2.95-15.63-4.84-3.89-1.89-6.74-4.23-8.52-7-1.79-2.77-2.68-6.19-2.68-10.26,0-4.49,1.25-8.49,3.74-12,2.49-3.51,5.98-6.26,10.47-8.26,4.49-2,9.68-3,15.58-3,5.26,0,10.33.77,15.21,2.32,4.88,1.54,8.75,3.61,11.63,6.21l-5.26,11.68c-6.81-4.98-13.96-7.47-21.47-7.47-4.28,0-7.65.83-10.1,2.47-2.46,1.65-3.68,3.91-3.68,6.79,0,1.68.47,3.07,1.42,4.16.95,1.09,2.53,2.05,4.74,2.89s5.35,1.72,9.42,2.63c9.54,2.1,16.4,4.81,20.57,8.1,4.17,3.3,6.26,7.86,6.26,13.68,0,7.02-2.7,12.54-8.1,16.58-5.4,4.04-12.94,6.05-22.63,6.05-5.61,0-11.01-.75-16.21-2.26Z"/>
  <path class="cls-2" d="M221.79,255.7h51.15v12.73h-35.15v17.36h35.15v12.73h-35.15v18.63h35.15v12.73h-51.15v-74.19Z"/>
  <path class="cls-2" d="M361.85,255.7h16.42v74.19h-16.42v-74.19Z"/>
  <polygon class="cls-3" points="318.71 288.95 318.71 300.32 333.23 300.32 347.97 288.95 318.71 288.95"/>
  <path class="cls-1" d="M333.23,300.32h0v29.42c.7-.12,1.41-.23,2.11-.37,4.84-.98,9.05-2.35,12.63-4.1v-36.31l-14.74,11.37Z"/>
  <path class="cls-2" d="M321.13,318.21c-7.51,0-13.12-2.11-16.84-6.31-3.72-4.21-5.58-10.59-5.58-19.15,0-16.63,7.16-24.94,21.47-24.94,3.79,0,7.31.54,10.58,1.63,3.26,1.09,6.61,2.86,10.05,5.31l5.16-11.68c-3.02-2.59-6.82-4.63-11.42-6.1-4.6-1.47-9.56-2.21-14.89-2.21-7.58,0-14.21,1.54-19.89,4.63-5.68,3.09-10.05,7.49-13.1,13.21-3.05,5.72-4.58,12.44-4.58,20.15s1.54,14.65,4.63,20.36c3.09,5.72,7.51,10.1,13.26,13.15,5.75,3.05,12.56,4.58,20.42,4.58,4.38,0,8.66-.38,12.84-1.1v-13.1c-4,1.05-8.03,1.58-12.1,1.58Z"/>
  <g>
    <path class="cls-2" d="M396.26,285.63c-.79-.28-1.5-.71-2.12-1.29l.48-.91c.66.58,1.32,1,1.98,1.24.66.24,1.46.36,2.39.36,1.1,0,1.96-.23,2.58-.68.61-.45.92-1.09.92-1.91,0-.48-.15-.88-.45-1.18s-.68-.54-1.13-.71c-.46-.17-1.07-.34-1.84-.51-1.02-.22-1.84-.45-2.46-.69s-1.16-.59-1.59-1.07c-.43-.48-.65-1.12-.65-1.93,0-.74.19-1.39.58-1.95.38-.56.93-.99,1.63-1.3.7-.31,1.52-.46,2.46-.46.89,0,1.72.15,2.48.44s1.42.72,1.98,1.27l-.48.91c-.62-.56-1.25-.96-1.88-1.22-.63-.25-1.33-.38-2.1-.38-1.1,0-1.96.24-2.58.71-.62.47-.93,1.13-.93,1.97,0,.73.27,1.27.81,1.63s1.33.65,2.37.9l.48.11c1,.25,1.8.48,2.38.69.58.21,1.08.54,1.48.98.4.44.6,1.03.6,1.78s-.19,1.35-.58,1.9c-.38.55-.93.97-1.63,1.27-.7.3-1.52.46-2.45.46-1.03,0-1.94-.14-2.73-.42Z"/>
    <path class="cls-2" d="M414.73,282.4h-7.07l-1.51,3.5h-1.17l5.69-13.11h1.04l5.69,13.11h-1.17l-1.51-3.5ZM414.3,281.4l-3.11-7.25-3.11,7.25h6.21Z"/>
    <path class="cls-2" d="M420.69,284.73c-.86-.88-1.29-2.18-1.29-3.89v-8.05h1.15v8.18c0,2.7,1.31,4.05,3.94,4.05,1.3,0,2.28-.34,2.95-1.02.66-.68,1-1.69,1-3.03v-8.18h1.13v8.05c0,1.71-.43,3.01-1.29,3.89-.86.88-2.12,1.32-3.78,1.32s-2.94-.44-3.8-1.32Z"/>
    <path class="cls-2" d="M432.89,272.79h4.22c2.08,0,3.69.57,4.82,1.7,1.13,1.13,1.69,2.75,1.69,4.85s-.57,3.71-1.7,4.85-2.74,1.71-4.81,1.71h-4.22v-13.11ZM437.05,284.9c1.77,0,3.11-.47,4.01-1.4.9-.93,1.35-2.32,1.35-4.17,0-3.7-1.79-5.54-5.36-5.54h-3.01v11.1h3.01Z"/>
    <path class="cls-2" d="M446.48,272.79h1.15v13.11h-1.15v-13.11Z"/>
    <path class="cls-2" d="M455.71,272.79h8.09v.99h-6.96v4.97h6.58v1h-6.58v5.17h6.96v.99h-8.09v-13.11Z"/>
    <path class="cls-2" d="M476.76,272.79v13.11h-.89l-8.31-11.18v11.18h-1.08v-13.11h.91l8.3,11.16v-11.16h1.08Z"/>
    <path class="cls-2" d="M490.28,279.18v5.97c-.48.26-1.14.47-1.97.64-.83.17-1.67.25-2.51.25-1.28,0-2.38-.27-3.3-.8-.92-.53-1.63-1.3-2.12-2.31-.49-1-.73-2.21-.73-3.61s.24-2.59.73-3.6c.48-1.01,1.18-1.78,2.09-2.31.91-.53,1.99-.79,3.23-.79,1.83,0,3.32.57,4.46,1.71l-.48.91c-.62-.57-1.25-.98-1.88-1.23-.63-.25-1.34-.37-2.12-.37-1.55,0-2.74.49-3.58,1.48-.84.99-1.25,2.38-1.25,4.19s.42,3.26,1.27,4.24c.85.98,2.08,1.47,3.69,1.47.62,0,1.23-.05,1.82-.16.59-.11,1.13-.25,1.62-.44v-4.3h-3.46v-.97h4.5Z"/>
    <path class="cls-2" d="M493.52,272.79h1.15v13.11h-1.15v-13.11Z"/>
    <path class="cls-2" d="M508.34,272.79v13.11h-.89l-8.31-11.18v11.18h-1.08v-13.11h.91l8.3,11.16v-11.16h1.08Z"/>
    <path class="cls-2" d="M511.73,272.79h8.09v.99h-6.96v4.97h6.58v1h-6.58v5.17h6.96v.99h-8.09v-13.11Z"/>
    <path class="cls-2" d="M522.5,272.79h8.09v.99h-6.96v4.97h6.58v1h-6.58v5.17h6.96v.99h-8.09v-13.11Z"/>
    <path class="cls-2" d="M543.31,285.9h-1.26l-2.21-4.2c-.3-.57-.64-.96-1.04-1.17-.4-.21-.94-.32-1.64-.32h-2.73v5.69h-1.15v-13.11h5.25c1.38,0,2.44.31,3.18.94.74.63,1.12,1.54,1.12,2.74,0,1.02-.29,1.83-.88,2.45-.59.61-1.43.99-2.52,1.13.32.1.61.27.87.51.25.24.49.56.7.96l2.34,4.39ZM538.44,279.22c2.16,0,3.24-.92,3.24-2.77,0-.91-.27-1.58-.8-2.02-.53-.44-1.35-.66-2.44-.66h-4.04v5.45h4.04Z"/>
    <path class="cls-2" d="M545.95,272.79h1.15v13.11h-1.15v-13.11Z"/>
    <path class="cls-2" d="M560.78,272.79v13.11h-.89l-8.31-11.18v11.18h-1.08v-13.11h.91l8.3,11.16v-11.16h1.08Z"/>
    <path class="cls-2" d="M574.3,279.18v5.97c-.48.26-1.14.47-1.97.64-.83.17-1.67.25-2.51.25-1.28,0-2.38-.27-3.3-.8-.92-.53-1.63-1.3-2.12-2.31-.49-1-.73-2.21-.73-3.61s.24-2.59.73-3.6c.48-1.01,1.18-1.78,2.09-2.31.91-.53,1.99-.79,3.23-.79,1.83,0,3.32.57,4.46,1.71l-.48.91c-.62-.57-1.25-.98-1.88-1.23-.63-.25-1.34-.37-2.12-.37-1.55,0-2.74.49-3.58,1.48-.84.99-1.25,2.38-1.25,4.19s.42,3.26,1.27,4.24c.85.98,2.08,1.47,3.69,1.47.62,0,1.23-.05,1.82-.16.59-.11,1.13-.25,1.62-.44v-4.3h-3.46v-.97h4.5Z"/>
    <path class="cls-2" d="M405.06,301.5v5.97c-.48.26-1.14.47-1.97.64-.83.17-1.67.25-2.51.25-1.28,0-2.38-.27-3.3-.8-.92-.53-1.63-1.3-2.12-2.31-.49-1-.73-2.21-.73-3.61s.24-2.59.73-3.6c.48-1.01,1.18-1.78,2.09-2.31.91-.53,1.99-.79,3.23-.79,1.83,0,3.32.57,4.46,1.71l-.48.91c-.62-.57-1.25-.98-1.88-1.23-.63-.25-1.34-.37-2.12-.37-1.55,0-2.74.49-3.58,1.48-.84.99-1.25,2.38-1.25,4.19s.42,3.26,1.27,4.24c.85.98,2.08,1.47,3.69,1.47.62,0,1.23-.05,1.82-.16.59-.11,1.13-.25,1.62-.44v-4.3h-3.46v-.97h4.5Z"/>
    <path class="cls-2" d="M418.34,308.22h-1.26l-2.21-4.2c-.3-.57-.64-.96-1.04-1.17-.4-.21-.94-.32-1.64-.32h-2.73v5.69h-1.15v-13.11h5.25c1.38,0,2.44.31,3.18.94.74.63,1.12,1.54,1.12,2.74,0,1.02-.29,1.83-.88,2.44-.59.61-1.43.99-2.52,1.13.32.1.61.27.87.51.25.24.49.56.7.96l2.34,4.39ZM413.47,301.54c2.16,0,3.24-.92,3.24-2.77,0-.91-.27-1.58-.8-2.02-.53-.44-1.35-.66-2.44-.66h-4.04v5.45h4.04Z"/>
    <path class="cls-2" d="M423.12,307.56c-.88-.54-1.56-1.31-2.03-2.33-.47-1.01-.71-2.2-.71-3.56s.24-2.57.71-3.58c.47-1.01,1.14-1.79,2.02-2.32.87-.54,1.91-.81,3.12-.81s2.24.27,3.12.81c.88.54,1.56,1.31,2.03,2.32.47,1,.71,2.19.71,3.57s-.24,2.57-.71,3.58c-.47,1.01-1.15,1.79-2.03,2.33-.88.54-1.92.81-3.12.81s-2.23-.27-3.11-.81ZM429.67,305.86c.82-.99,1.23-2.39,1.23-4.2s-.41-3.21-1.22-4.19c-.81-.99-1.96-1.48-3.45-1.48s-2.62.5-3.43,1.49c-.81.99-1.22,2.39-1.22,4.19s.41,3.2,1.22,4.19c.81,1,1.96,1.5,3.43,1.5s2.62-.5,3.44-1.49Z"/>
    <path class="cls-2" d="M436.17,307.05c-.86-.88-1.29-2.18-1.29-3.89v-8.05h1.15v8.18c0,2.7,1.31,4.05,3.94,4.05,1.3,0,2.28-.34,2.95-1.02.66-.68,1-1.69,1-3.03v-8.18h1.13v8.05c0,1.71-.43,3.01-1.29,3.89-.86.88-2.12,1.32-3.78,1.32s-2.94-.44-3.8-1.32Z"/>
    <path class="cls-2" d="M448.36,295.11h4.97c1.36,0,2.42.33,3.17.99.75.66,1.12,1.59,1.12,2.79s-.38,2.15-1.13,2.82c-.76.66-1.81,1-3.16,1h-3.81v5.52h-1.15v-13.11ZM453.25,301.71c2.15,0,3.22-.94,3.22-2.83s-1.07-2.79-3.22-2.79h-3.74v5.62h3.74Z"/>
    <path class="cls-2" d="M464.91,295.11h1.15v13.11h-1.15v-13.11Z"/>
    <path class="cls-2" d="M479.74,295.11v13.11h-.89l-8.31-11.18v11.18h-1.08v-13.11h.91l8.3,11.16v-11.16h1.08Z"/>
    <path class="cls-2" d="M486.36,296.11h-4.71v-1h10.53v1h-4.69v12.11h-1.13v-12.11Z"/>
    <path class="cls-2" d="M494.1,295.11h8.09v.99h-6.96v4.97h6.58v1h-6.58v5.17h6.96v.99h-8.09v-13.11Z"/>
    <path class="cls-2" d="M514.91,308.22h-1.26l-2.21-4.2c-.3-.57-.64-.96-1.04-1.17-.4-.21-.94-.32-1.64-.32h-2.73v5.69h-1.15v-13.11h5.25c1.38,0,2.44.31,3.18.94.74.63,1.12,1.54,1.12,2.74,0,1.02-.29,1.83-.88,2.44-.59.61-1.43.99-2.52,1.13.32.1.61.27.87.51.25.24.49.56.7.96l2.34,4.39ZM510.04,301.54c2.16,0,3.24-.92,3.24-2.77,0-.91-.27-1.58-.8-2.02-.53-.44-1.35-.66-2.44-.66h-4.04v5.45h4.04Z"/>
    <path class="cls-2" d="M527.84,295.11v13.11h-.89l-8.31-11.18v11.18h-1.08v-13.11h.91l8.3,11.16v-11.16h1.08Z"/>
    <path class="cls-2" d="M539.76,304.72h-7.07l-1.51,3.5h-1.17l5.69-13.11h1.04l5.69,13.11h-1.17l-1.51-3.5ZM539.33,303.72l-3.11-7.25-3.11,7.25h6.21Z"/>
    <path class="cls-2" d="M546.34,296.11h-4.71v-1h10.53v1h-4.69v12.11h-1.13v-12.11Z"/>
    <path class="cls-2" d="M554.08,295.11h1.15v13.11h-1.15v-13.11Z"/>
    <path class="cls-2" d="M560.85,307.56c-.88-.54-1.56-1.31-2.03-2.33-.47-1.01-.71-2.2-.71-3.56s.24-2.57.71-3.58c.47-1.01,1.14-1.79,2.02-2.32.87-.54,1.91-.81,3.12-.81s2.24.27,3.12.81c.88.54,1.56,1.31,2.03,2.32.47,1,.71,2.19.71,3.57s-.24,2.57-.71,3.58c-.47,1.01-1.15,1.79-2.03,2.33-.88.54-1.92.81-3.12.81s-2.23-.27-3.11-.81ZM567.4,305.86c.82-.99,1.23-2.39,1.23-4.2s-.41-3.21-1.22-4.19c-.81-.99-1.96-1.48-3.45-1.48s-2.62.5-3.43,1.49c-.81.99-1.22,2.39-1.22,4.19s.41,3.2,1.22,4.19c.81,1,1.96,1.5,3.43,1.5s2.62-.5,3.44-1.49Z"/>
    <path class="cls-2" d="M582.98,295.11v13.11h-.89l-8.31-11.18v11.18h-1.08v-13.11h.91l8.3,11.16v-11.16h1.08Z"/>
    <path class="cls-2" d="M594.91,304.72h-7.07l-1.51,3.5h-1.17l5.69-13.11h1.04l5.69,13.11h-1.17l-1.51-3.5ZM594.48,303.72l-3.11-7.25-3.11,7.25h6.21Z"/>
    <path class="cls-2" d="M599.76,295.11h1.15v12.11h6.77v1h-7.92v-13.11Z"/>
  </g>
  <g>
    <path class="cls-3" d="M401.63,320.72v5.57c0,.85.2,1.51.61,1.99.37.43.86.65,1.45.65h.25v.92h-.32c-1.2,0-2.06-.49-2.58-1.47-.32.3-.76.55-1.32.74-.56.2-1.1.3-1.62.3-2.29,0-3.43-1.27-3.43-3.82v-.72c0-2.55,1.16-3.82,3.46-3.82.91,0,1.72.19,2.42.57v-.9h1.08ZM398.17,321.96c-1.62,0-2.42.95-2.42,2.84v.86c0,1.02.22,1.76.66,2.23.38.41.96.61,1.72.61.47,0,.93-.1,1.4-.29s.85-.45,1.15-.77c-.08-.35-.13-.93-.13-1.76v-2.98c-.56-.49-1.36-.74-2.39-.74ZM397.49,318.91h-.97v-1.71h.97v1.71ZM399.82,318.91h-.97v-1.71h.97v1.71Z"/>
    <path class="cls-3" d="M409.75,329.84h-2.32c-.6,0-.99-.16-1.17-.48-.5.32-1.13.48-1.87.48h-.77v-.92h.77c.74,0,1.3-.27,1.69-.81.33-.45.5-1.06.5-1.83v-5.06h1.08v4.99c0,1.09-.27,1.92-.81,2.5.1.14.29.21.59.21h2.3v.92ZM405.21,333.65h-.97v-1.71h.97v1.71ZM407.54,333.65h-.97v-1.71h.97v1.71Z"/>
    <path class="cls-3" d="M421.72,329.84h-.34c-1.03-.04-1.8-.46-2.3-1.27-.44,1.33-1.49,1.99-3.14,1.99s-2.78-.67-3.19-2.01c-.5.86-1.34,1.29-2.51,1.29h-.77v-.92h.77c.74,0,1.3-.27,1.69-.81.33-.45.5-1.06.5-1.83v-1.42c0-1.4.33-2.41.99-3.03.57-.54,1.42-.81,2.53-.81,1.25,0,2.15.35,2.71,1.06.5.63.75,1.56.75,2.78v1.42c0,.85.21,1.51.63,1.99.36.43.84.65,1.44.65h.25v.92ZM418.31,326.81v-2.01c0-1.04-.22-1.78-.65-2.23-.38-.41-.97-.61-1.76-.61-.88,0-1.52.26-1.9.79-.33.45-.5,1.14-.5,2.05v2.01c0,1.03.22,1.77.65,2.23.4.41.98.61,1.76.61.9,0,1.54-.26,1.92-.79.32-.46.48-1.14.48-2.05Z"/>
    <path class="cls-3" d="M425.47,317.02v9.19c0,1.24-.32,2.18-.95,2.8-.56.55-1.33.83-2.32.83h-.77v-.92h.77c.74,0,1.3-.27,1.69-.81.33-.45.5-1.06.5-1.83v-9.26h1.08Z"/>
    <path class="cls-3" d="M429.85,317.02v9.26c0,.85.21,1.51.63,1.99.36.43.84.65,1.44.65h.25v.92h-.32c-1.02,0-1.8-.37-2.35-1.11-.48-.63-.72-1.47-.72-2.51v-9.19h1.08Z"/>
    <path class="cls-3" d="M438.4,321.03c1.23,0,2.21.4,2.93,1.2.65.73.99,1.72,1.02,2.96-1.42,1.11-2.39,2.36-2.91,3.73h4.56v.92h-4.33c-.62,0-1.05-.08-1.27-.23-.14.1-.3.16-.47.19-.17.03-.47.04-.92.04h-5.13v-.92h5.48c-.53-1.4-1.5-2.64-2.91-3.73.04-1.41.47-2.49,1.31-3.23.69-.62,1.57-.93,2.64-.93ZM438.4,321.98c-.8,0-1.47.28-1.99.83-.5.53-.79,1.23-.86,2.12.56.39,1.05.87,1.45,1.42.41.55.85,1.33,1.33,2.33.02.04.05.05.07.05.04,0,.06-.02.07-.05.6-1.62,1.53-2.87,2.78-3.75-.08-1.01-.44-1.78-1.08-2.32-.5-.42-1.09-.63-1.78-.63Z"/>
    <path class="cls-3" d="M447.75,317.02v9.19c0,1.24-.32,2.18-.95,2.8-.56.55-1.33.83-2.32.83h-.77v-.92h.77c.74,0,1.3-.27,1.69-.81.33-.45.5-1.06.5-1.83v-9.26h1.08Z"/>
    <path class="cls-3" d="M452.13,317.02v12.82h-1.08v-12.82h1.08Z"/>
    <path class="cls-3" d="M465.78,320.72v5.57c0,.85.2,1.51.61,1.99.37.43.86.65,1.45.65h.25v.92h-.32c-1.2,0-2.06-.49-2.58-1.47-.32.3-.76.55-1.32.74-.56.2-1.1.3-1.62.3-2.29,0-3.43-1.27-3.43-3.82v-.72c0-2.55,1.15-3.82,3.46-3.82.91,0,1.72.19,2.42.57v-.9h1.08ZM462.31,321.96c-1.62,0-2.42.95-2.42,2.84v.86c0,1.02.22,1.76.66,2.23.38.41.96.61,1.72.61.47,0,.93-.1,1.4-.29s.85-.45,1.15-.77c-.08-.35-.13-.93-.13-1.76v-2.98c-.56-.49-1.36-.74-2.39-.74ZM461.63,318.91h-.97v-1.71h.97v1.71ZM463.96,318.91h-.97v-1.71h.97v1.71Z"/>
    <path class="cls-3" d="M471.81,321.23v4.99c0,1.24-.32,2.18-.95,2.8-.56.55-1.33.83-2.32.83h-.77v-.92h.77c.74,0,1.3-.27,1.69-.81.33-.45.5-1.06.5-1.83v-5.06h1.08ZM469.35,333.65h-.97v-1.71h.97v1.71ZM471.68,333.65h-.97v-1.71h.97v1.71Z"/>
    <path class="cls-3" d="M476.68,321.89l.45-.86c2.85.53,4.27,2.22,4.27,5.08,0,2.49-1.16,3.73-3.47,3.73h-3.43v-.92h3.43c1.59,0,2.39-.93,2.39-2.78,0-1.38-.4-2.43-1.2-3.16-.57-.51-1.39-.88-2.44-1.09Z"/>
    <path class="cls-3" d="M487.5,321.03c1.26,0,2.17.35,2.73,1.06.49.62.74,1.55.74,2.78v4.06h2.08v.92h-2.08v.63c-.01,1.41-.38,2.47-1.11,3.16-.62.59-1.5.88-2.62.88-.99,0-1.92-.23-2.78-.68l.38-.86c.69.39,1.46.59,2.3.59,1.84,0,2.76-1,2.76-3v-.72h-2.46c-2.29,0-3.43-1.28-3.43-3.84v-1.13c0-1.4.33-2.41.99-3.03.57-.54,1.41-.81,2.51-.81ZM487.48,321.96c-.89,0-1.52.26-1.9.79-.33.45-.5,1.14-.5,2.05v1.29c0,1.03.21,1.77.65,2.23.4.41.98.61,1.76.61h2.41v-4.13c0-1.04-.21-1.78-.63-2.23-.39-.41-.99-.61-1.78-.61Z"/>
    <path class="cls-3" d="M499.28,321.03c1.23,0,2.21.4,2.93,1.2.65.73.99,1.72,1.02,2.96-1.42,1.11-2.39,2.36-2.91,3.73h4.56v.92h-4.33c-.62,0-1.05-.08-1.27-.23-.14.1-.3.16-.47.19-.17.03-.47.04-.92.04h-5.13v-.92h5.48c-.53-1.4-1.5-2.64-2.91-3.73.04-1.41.47-2.49,1.31-3.23.69-.62,1.57-.93,2.64-.93ZM499.28,321.98c-.8,0-1.47.28-1.99.83-.5.53-.79,1.23-.86,2.12.56.39,1.05.87,1.45,1.42.41.55.85,1.33,1.33,2.33.02.04.05.05.07.05.04,0,.06-.02.07-.05.6-1.62,1.53-2.87,2.78-3.75-.08-1.01-.44-1.78-1.08-2.32-.5-.42-1.09-.63-1.78-.63Z"/>
    <path class="cls-3" d="M523.48,329.84h-2.91c-.59,0-.96-.14-1.13-.43-.51.39-1.2.59-2.05.59-1.32,0-2.21-.5-2.69-1.51-.49,1.01-1.41,1.51-2.75,1.51s-2.32-.54-2.8-1.62c-.53.97-1.41,1.45-2.66,1.45h-1.9v-.92h1.9c.74,0,1.3-.27,1.69-.81.33-.45.5-1.06.5-1.83v-5.06h1.1v5.26c0,.87.21,1.54.63,1.99.38.41.9.61,1.54.61.74,0,1.3-.26,1.69-.79.32-.46.49-1.06.49-1.81v-5.26h1.08v5.26c0,.87.21,1.54.65,1.99.38.41.9.61,1.54.61.74,0,1.3-.26,1.69-.79.32-.46.49-1.06.49-1.81v-5.24h1.08v5.17c0,.96-.2,1.74-.61,2.35.12.11.3.16.56.16h2.89v.92Z"/>
    <path class="cls-3" d="M527.23,317.02v9.19c0,1.24-.32,2.18-.95,2.8-.56.55-1.33.83-2.32.83h-.77v-.92h.77c.74,0,1.3-.27,1.69-.81.33-.45.5-1.06.5-1.83v-9.26h1.08Z"/>
    <path class="cls-3" d="M531.61,317.02v12.82h-1.08v-12.82h1.08Z"/>
    <path class="cls-3" d="M545.25,320.72v5.57c0,.85.2,1.51.61,1.99.37.43.86.65,1.45.65h.25v.92h-.32c-1.2,0-2.06-.49-2.58-1.47-.32.3-.76.55-1.32.74-.56.2-1.1.3-1.62.3-2.29,0-3.43-1.27-3.43-3.82v-.72c0-2.55,1.15-3.82,3.46-3.82.91,0,1.72.19,2.42.57v-.9h1.08ZM541.79,321.96c-1.62,0-2.42.95-2.42,2.84v.86c0,1.02.22,1.76.66,2.23.38.41.96.61,1.72.61.47,0,.93-.1,1.4-.29.47-.19.85-.45,1.15-.77-.08-.35-.13-.93-.13-1.76v-2.98c-.56-.49-1.36-.74-2.39-.74ZM541.11,318.91h-.97v-1.71h.97v1.71ZM543.44,318.91h-.97v-1.71h.97v1.71Z"/>
    <path class="cls-3" d="M553.37,329.84h-2.32c-.6,0-.99-.16-1.17-.48-.5.32-1.12.48-1.87.48h-.77v-.92h.77c.74,0,1.3-.27,1.69-.81.33-.45.5-1.06.5-1.83v-5.06h1.08v4.99c0,1.09-.27,1.92-.81,2.5.1.14.29.21.59.21h2.3v.92ZM548.83,333.65h-.97v-1.71h.97v1.71ZM551.16,333.65h-.97v-1.71h.97v1.71Z"/>
    <path class="cls-3" d="M569.13,321.24v5.17c0,1.23-.32,2.16-.95,2.78-.56.54-1.33.81-2.3.81-1.32,0-2.21-.5-2.69-1.51-.49,1.01-1.41,1.51-2.75,1.51s-2.32-.54-2.8-1.62c-.53.97-1.41,1.45-2.66,1.45h-1.9v-.92h1.9c.74,0,1.3-.27,1.69-.81.33-.45.5-1.06.5-1.83v-5.06h1.1v5.26c0,.87.21,1.54.63,1.99.38.41.9.61,1.54.61.74,0,1.3-.26,1.69-.79.32-.46.49-1.06.49-1.81v-5.26h1.08v5.26c0,.87.21,1.54.65,1.99.38.41.9.61,1.54.61.74,0,1.3-.26,1.69-.79.32-.46.49-1.06.49-1.81v-5.24h1.08Z"/>
    <path class="cls-3" d="M580.46,329.84h-1.99c-.61,0-1-.16-1.17-.48-.51.32-1.2.48-2.05.48h-3.43v-.92h3.43c1.59,0,2.39-.93,2.39-2.78,0-1.38-.4-2.43-1.2-3.16-.57-.51-1.39-.88-2.44-1.09l.45-.86c2.85.53,4.27,2.22,4.27,5.08,0,1.2-.27,2.07-.81,2.62.08.13.28.2.58.2h1.97v.92Z"/>
    <path class="cls-3" d="M586.29,329.84h-2.32c-.6,0-.99-.16-1.17-.48-.5.32-1.12.48-1.87.48h-.77v-.92h.77c.74,0,1.3-.27,1.69-.81.33-.45.5-1.06.5-1.83v-5.06h1.08v4.99c0,1.09-.27,1.92-.81,2.5.1.14.29.21.59.21h2.3v.92ZM584.21,319h-1.08v-1.71h1.08v1.71Z"/>
    <path class="cls-3" d="M600.84,329.84h-1.99c-.61,0-.99-.16-1.15-.47-.51.31-1.13.47-1.85.47h-3.59c-.5,0-.89-.08-1.17-.23-.25.16-.67.23-1.24.23h-3.84v-.92h3.63c-.39-.19-.74-.56-1.02-1.09-.29-.54-.43-1.07-.43-1.6,0-.98.26-1.78.79-2.39s1.23-.92,2.1-.92c.99,0,1.75.39,2.28,1.17.39.59.59,1.3.59,2.14,0,.6-.17,1.18-.52,1.76-.29.46-.6.77-.93.93h3.34c.74,0,1.31-.27,1.71-.83.33-.46.5-1.07.5-1.83,0-1.36-.37-2.44-1.11-3.23-.67-.72-1.57-1.08-2.69-1.08-1.26,0-2.44.28-3.54.83l.45-1.04c.97-.48,2.01-.72,3.12-.72,1.52.01,2.72.5,3.59,1.47.84.93,1.26,2.2,1.26,3.81,0,1.05-.26,1.89-.77,2.5.11.08.28.12.52.12h1.97v.92ZM591.07,328.78c.63-.14,1.14-.5,1.51-1.06.3-.47.45-.98.45-1.54,0-.68-.17-1.25-.5-1.71-.35-.48-.83-.72-1.45-.72-.72,0-1.25.31-1.6.92-.25.43-.38.93-.38,1.51,0,.65.2,1.22.59,1.72.36.45.82.75,1.38.88Z"/>
    <path class="cls-3" d="M604.61,317.02v9.19c0,1.24-.32,2.18-.95,2.8-.56.55-1.33.83-2.32.83h-.77v-.92h.77c.74,0,1.3-.27,1.69-.81.33-.45.5-1.06.5-1.83v-9.26h1.08Z"/>
    <path class="cls-3" d="M608.99,317.02v12.82h-1.08v-12.82h1.08Z"/>
    <path class="cls-3" d="M622.63,320.72v5.57c0,.85.2,1.51.61,1.99.37.43.86.65,1.45.65h.25v.92h-.32c-1.2,0-2.06-.49-2.58-1.47-.32.3-.76.55-1.32.74-.56.2-1.1.3-1.62.3-2.29,0-3.43-1.27-3.43-3.82v-.72c0-2.55,1.15-3.82,3.46-3.82.91,0,1.72.19,2.42.57v-.9h1.08ZM619.17,321.96c-1.62,0-2.42.95-2.42,2.84v.86c0,1.02.22,1.76.66,2.23.38.41.96.61,1.72.61.47,0,.93-.1,1.4-.29s.85-.45,1.15-.77c-.08-.35-.13-.93-.13-1.76v-2.98c-.56-.49-1.36-.74-2.39-.74ZM618.48,318.91h-.97v-1.71h.97v1.71ZM620.82,318.91h-.97v-1.71h.97v1.71Z"/>
    <path class="cls-3" d="M631.32,321.03c.77,0,1.46.18,2.08.54.51.29.91.65,1.18,1.1l-.88.47c-.59-.78-1.4-1.17-2.44-1.17-.83,0-1.53.32-2.12.97-.56.61-.84,1.39-.84,2.33,0,1.41.45,2.43,1.35,3.05.58.41,1.27.61,2.08.61h3.23v.92h-10.34v-.92h4.22c-.51-.37-.91-.86-1.19-1.46-.28-.6-.42-1.28-.42-2.04,0-1.39.42-2.5,1.26-3.32.74-.72,1.69-1.08,2.84-1.08Z"/>
    <path class="cls-3" d="M640.94,321.03c1.26,0,2.17.35,2.73,1.06.49.62.74,1.55.74,2.78v4.06h2.08v.92h-2.08v.63c-.01,1.41-.38,2.47-1.11,3.16-.62.59-1.5.88-2.62.88-.99,0-1.92-.23-2.78-.68l.38-.86c.69.39,1.46.59,2.3.59,1.84,0,2.76-1,2.76-3v-.72h-2.46c-2.29,0-3.43-1.28-3.43-3.84v-1.13c0-1.4.33-2.41.99-3.03.57-.54,1.41-.81,2.51-.81ZM640.92,321.96c-.89,0-1.52.26-1.9.79-.33.45-.5,1.14-.5,2.05v1.29c0,1.03.21,1.77.65,2.23.4.41.98.61,1.76.61h2.41v-4.13c0-1.04-.21-1.78-.63-2.23-.39-.41-.99-.61-1.78-.61Z"/>
    <path class="cls-3" d="M658.46,329.84h-.34c-1.03-.04-1.8-.46-2.3-1.27-.44,1.33-1.49,1.99-3.14,1.99s-2.78-.67-3.2-2.01c-.5.86-1.34,1.29-2.51,1.29h-.77v-.92h.77c.74,0,1.3-.27,1.69-.81.33-.45.5-1.06.5-1.83v-1.42c0-1.4.33-2.41.99-3.03.58-.54,1.42-.81,2.53-.81,1.25,0,2.15.35,2.71,1.06.5.63.75,1.56.75,2.78v1.42c0,.85.21,1.51.63,1.99.36.43.84.65,1.44.65h.25v.92ZM655.05,326.81v-2.01c0-1.04-.22-1.78-.65-2.23-.38-.41-.97-.61-1.76-.61-.89,0-1.52.26-1.9.79-.33.45-.5,1.14-.5,2.05v2.01c0,1.03.22,1.77.65,2.23.4.41.98.61,1.76.61.9,0,1.54-.26,1.92-.79.32-.46.48-1.14.48-2.05Z"/>
    <path class="cls-3" d="M663.51,321.03c1.6,0,2.74.6,3.41,1.81.23.41.38.8.47,1.18.08.38.17,1.06.27,2.04.08.86.23,1.52.45,1.97.17.35.35.58.55.71.2.13.49.19.87.19h.5v.92h-11.85v-.92h9.23c-.31-.35-.54-.89-.68-1.63-.04-.23-.11-.78-.22-1.65-.13-1.06-.32-1.84-.57-2.33-.22-.43-.54-.76-.96-1s-.92-.35-1.48-.35c-.87,0-1.67.43-2.39,1.29l-.84-.52c.36-.53.83-.95,1.4-1.26.58-.3,1.19-.45,1.85-.45ZM664.12,333.65h-1.08v-1.72h1.08v1.72Z"/>
    <path class="cls-3" d="M681.98,329.84h-.34c-1.03-.04-1.8-.46-2.3-1.27-.44,1.33-1.49,1.99-3.14,1.99s-2.78-.67-3.2-2.01c-.5.86-1.34,1.29-2.51,1.29h-.77v-.92h.77c.74,0,1.3-.27,1.69-.81.33-.45.5-1.06.5-1.83v-1.42c0-1.4.33-2.41.99-3.03.58-.54,1.42-.81,2.53-.81,1.25,0,2.15.35,2.71,1.06.5.63.75,1.56.75,2.78v1.42c0,.85.21,1.51.63,1.99.36.43.84.65,1.44.65h.25v.92ZM678.57,326.81v-2.01c0-1.04-.22-1.78-.65-2.23-.38-.41-.97-.61-1.76-.61-.89,0-1.52.26-1.9.79-.33.45-.5,1.14-.5,2.05v2.01c0,1.03.22,1.77.65,2.23.4.41.98.61,1.76.61.9,0,1.54-.26,1.92-.79.32-.46.48-1.14.48-2.05Z"/>
    <path class="cls-3" d="M685.73,317.02v9.19c0,1.24-.32,2.18-.95,2.8-.56.55-1.33.83-2.32.83h-.77v-.92h.77c.74,0,1.3-.27,1.69-.81.33-.45.5-1.06.5-1.83v-9.26h1.08Z"/>
    <path class="cls-3" d="M690.11,317.02v12.82h-1.08v-12.82h1.08Z"/>
  </g>
</svg>