<?xml version="1.0" encoding="UTF-8"?>
<svg xmlns="http://www.w3.org/2000/svg" xmlns:xlink="http://www.w3.org/1999/xlink" version="1.1" id="Capa_1" x="0px" y="0px" viewBox="0 0 512 512" style="enable-background:new 0 0 512 512;" xml:space="preserve" width="512" height="512">
<g>
	
		<line style="fill:none;stroke:#000000;stroke-width:15;stroke-linecap:round;stroke-linejoin:round;stroke-miterlimit:10;" x1="268.604" y1="58.666" x2="315.273" y2="58.666"/>
	
		<line style="fill:none;stroke:#000000;stroke-width:15;stroke-linecap:round;stroke-linejoin:round;stroke-miterlimit:10;" x1="314.445" y1="94.011" x2="269.597" y2="94.011"/>
	<path style="fill:none;stroke:#000000;stroke-width:15;stroke-linecap:round;stroke-linejoin:round;stroke-miterlimit:10;" d="&#10;&#9;&#9;M217.135,50.576h45.034c2.767,0,5.011,2.243,5.011,5.011V97.09c0,2.767-2.243,5.011-5.011,5.011h-45.365"/>
	<path style="fill:none;stroke:#000000;stroke-width:15;stroke-linecap:round;stroke-linejoin:round;stroke-miterlimit:10;" d="&#10;&#9;&#9;M26.54,334.025v-31.16c0-2.77,2.24-5.01,5.01-5.01h130.44c2.77,0,5.01,2.24,5.01,5.01v108.96"/>
	
		<line style="fill:none;stroke:#000000;stroke-width:15;stroke-linecap:round;stroke-linejoin:round;stroke-miterlimit:10;" x1="26.54" y1="412.155" x2="26.54" y2="369.025"/>
	
		<rect x="78.389" y="325.969" style="fill:none;stroke:#000000;stroke-width:15;stroke-linecap:round;stroke-linejoin:round;stroke-miterlimit:10;" width="37.706" height="59.711"/>
	
		<line style="fill:none;stroke:#000000;stroke-width:15;stroke-linecap:round;stroke-linejoin:round;stroke-miterlimit:10;" x1="81.264" y1="355.824" x2="114.055" y2="355.824"/>
	
		<polyline style="fill:none;stroke:#000000;stroke-width:15;stroke-linecap:round;stroke-linejoin:round;stroke-miterlimit:10;" points="&#10;&#9;&#9;389.413,277.613 389.413,298.548 374.257,328.612 358.217,298.548 358.217,278.771 &#9;"/>
	
		<line style="fill:none;stroke:#000000;stroke-width:15;stroke-linecap:round;stroke-linejoin:round;stroke-miterlimit:10;" x1="389.413" y1="222.504" x2="389.413" y2="249.314"/>
	
		<line style="fill:none;stroke:#000000;stroke-width:15;stroke-linecap:round;stroke-linejoin:round;stroke-miterlimit:10;" x1="389.413" y1="166.733" x2="389.413" y2="194.536"/>
	
		<line style="fill:none;stroke:#000000;stroke-width:15;stroke-linecap:round;stroke-linejoin:round;stroke-miterlimit:10;" x1="358.217" y1="194.536" x2="358.217" y2="166.733"/>
	
		<line style="fill:none;stroke:#000000;stroke-width:15;stroke-linecap:round;stroke-linejoin:round;stroke-miterlimit:10;" x1="358.217" y1="249.314" x2="358.217" y2="222.504"/>
	<path style="fill:none;stroke:#000000;stroke-width:15;stroke-linecap:round;stroke-linejoin:round;stroke-miterlimit:10;" d="&#10;&#9;&#9;M394.838,220.987h-40.81c-5.535,0-10.022-4.487-10.022-10.022v-5.112c0-5.535,4.487-10.022,10.022-10.022h40.81&#10;&#9;&#9;c5.535,0,10.022,4.487,10.022,10.022v5.112C404.859,216.5,400.373,220.987,394.838,220.987z"/>
	<path style="fill:none;stroke:#000000;stroke-width:15;stroke-linecap:round;stroke-linejoin:round;stroke-miterlimit:10;" d="&#10;&#9;&#9;M394.838,276.105h-40.81c-5.535,0-10.022-4.487-10.022-10.022v-5.112c0-5.535,4.487-10.022,10.022-10.022h40.81&#10;&#9;&#9;c5.535,0,10.022,4.487,10.022,10.022v5.112C404.859,271.618,400.373,276.105,394.838,276.105z"/>
	<path style="fill:none;stroke:#000000;stroke-width:15;stroke-linecap:round;stroke-linejoin:round;stroke-miterlimit:10;" d="&#10;&#9;&#9;M422.121,125.525v19.298c0,11.069-8.974,20.043-20.043,20.043h-55.289c-11.069,0-20.043-8.974-20.043-20.043v-18.967"/>
	
		<line style="fill:none;stroke:#000000;stroke-width:15;stroke-linecap:round;stroke-linejoin:round;stroke-miterlimit:10;" x1="504.5" y1="413.795" x2="351.75" y2="413.795"/>
	<path style="fill:none;stroke:#000000;stroke-width:15;stroke-linecap:round;stroke-linejoin:round;stroke-miterlimit:10;" d="&#10;&#9;&#9;M316.75,413.795H12.51c-2.77,0-5.01,2.24-5.01,5.01v31.64c0,2.77,2.24,5.01,5.01,5.01H504.5"/>
	<path style="fill:none;stroke:#000000;stroke-width:15;stroke-linecap:round;stroke-linejoin:round;stroke-miterlimit:10;" d="&#10;&#9;&#9;M54.73,296.815v-197.5c0-2.77-2.24-5.01-5.01-5.01H36.56c-5.53,0-10.02-4.49-10.02-10.02v-33.71c0-5.53,4.49-10.02,10.02-10.02&#10;&#9;&#9;h107.82"/>
	<path style="fill:none;stroke:#000000;stroke-width:15;stroke-linecap:round;stroke-linejoin:round;stroke-miterlimit:10;" d="&#10;&#9;&#9;M179.38,40.555H205c5.54,0,10.02,4.49,10.02,10.02v52.16c0,3.71-2.06,7.13-5.34,8.86l-65.53,34.55c-3.29,1.74-5.34,5.15-5.34,8.87&#10;&#9;&#9;v140.8"/>
	<path style="fill:none;stroke:#000000;stroke-width:15;stroke-linecap:round;stroke-linejoin:round;stroke-miterlimit:10;" d="&#10;&#9;&#9;M432.52,96.565v22.86c0,2.77-2.24,5.02-5.01,5.02H321.36c-2.77,0-5.01-2.25-5.01-5.02v-70.05c0-15.94,12.92-28.86,28.86-28.86&#10;&#9;&#9;h58.45c15.94,0,28.86,12.92,28.86,28.86v12.19"/>
	<path style="fill:none;stroke:#000000;stroke-width:15;stroke-linecap:round;stroke-linejoin:round;stroke-miterlimit:10;" d="&#10;&#9;&#9;M52.966,185.18H30.55c-2.214,0-4.009-1.795-4.009-4.009v-28.195c0-2.214,1.795-4.009,4.009-4.009h21.92"/>
	<path style="fill:none;stroke:#000000;stroke-width:15;stroke-linecap:round;stroke-linejoin:round;stroke-miterlimit:10;" d="&#10;&#9;&#9;M52.966,255.331H30.55c-2.214,0-4.009-1.795-4.009-4.009v-28.195c0-2.214,1.795-4.009,4.009-4.009h22.417"/>
	
		<line style="fill:none;stroke:#000000;stroke-width:15;stroke-linecap:round;stroke-linejoin:round;stroke-miterlimit:10;" x1="36.581" y1="457.46" x2="36.581" y2="491.485"/>
	
		<line style="fill:none;stroke:#000000;stroke-width:15;stroke-linecap:round;stroke-linejoin:round;stroke-miterlimit:10;" x1="465.312" y1="457.46" x2="465.312" y2="491.485"/>
	
		<line style="fill:none;stroke:#000000;stroke-width:15;stroke-linecap:round;stroke-linejoin:round;stroke-miterlimit:10;" x1="214.473" y1="416.793" x2="214.473" y2="428.939"/>
	
		<line style="fill:none;stroke:#000000;stroke-width:15;stroke-linecap:round;stroke-linejoin:round;stroke-miterlimit:10;" x1="374.818" y1="416.793" x2="374.818" y2="428.939"/>
	
		<line style="fill:none;stroke:#000000;stroke-width:15;stroke-linecap:round;stroke-linejoin:round;stroke-miterlimit:10;" x1="454.99" y1="416.793" x2="454.99" y2="428.939"/>
	
		<line style="fill:none;stroke:#000000;stroke-width:15;stroke-linecap:round;stroke-linejoin:round;stroke-miterlimit:10;" x1="294.646" y1="416.793" x2="294.646" y2="428.939"/>
	<path style="fill:none;stroke:#000000;stroke-width:15;stroke-linecap:round;stroke-linejoin:round;stroke-miterlimit:10;" d="&#10;&#9;&#9;M504.5,363.504h-32.23c-1.279,8.406-8.517,14.853-17.28,14.853c-8.763,0-16.001-6.447-17.28-14.853h-45.612&#10;&#9;&#9;c-1.279,8.406-8.517,14.853-17.28,14.853c-8.763,0-16.001-6.447-17.28-14.853h-45.612c-1.279,8.406-8.517,14.853-17.28,14.853&#10;&#9;&#9;c-8.763,0-16.001-6.447-17.28-14.853h-62.892v47.662"/>
	
		<rect x="83.149" y="148.968" style="fill:none;stroke:#000000;stroke-width:15;stroke-linecap:round;stroke-linejoin:round;stroke-miterlimit:10;" width="27.244" height="106.363"/>
	
		<rect x="345.772" y="56.23" style="fill:none;stroke:#000000;stroke-width:15;stroke-linecap:round;stroke-linejoin:round;stroke-miterlimit:10;" width="57.322" height="32.491"/>
	
		<line style="fill:none;stroke:#000000;stroke-width:15;stroke-linecap:round;stroke-linejoin:round;stroke-miterlimit:10;" x1="113.932" y1="67.67" x2="113.932" y2="67.67"/>
	
		<line style="fill:none;stroke:#000000;stroke-width:15;stroke-linecap:round;stroke-linejoin:round;stroke-miterlimit:10;" x1="83.868" y1="67.67" x2="83.868" y2="67.67"/>
	
		<line style="fill:none;stroke:#000000;stroke-width:15;stroke-linecap:round;stroke-linejoin:round;stroke-miterlimit:10;" x1="53.803" y1="67.67" x2="53.803" y2="67.67"/>
</g>















</svg>
