<svg xmlns="http://www.w3.org/2000/svg" id="Layer_1" enable-background="new 0 0 500 500" viewBox="0 0 500 500"><path clip-rule="evenodd" d="m169.822 73.303c-2.595-2.595-2.595-6.797 0-9.392s6.802-2.595 9.397 0l9.74 9.735c4.196 4.199 1.166 11.352-4.693 11.352-1.704 0-3.407-.646-4.699-1.949zm-33.212 70.79c0-3.67 2.967-6.648 6.648-6.648h13.776c3.67 0 6.642 2.978 6.642 6.648s-2.972 6.642-6.642 6.642h-13.776c-3.681 0-6.648-2.972-6.648-6.642zm174.431-61.043c-2.595-2.595-2.595-6.802 0-9.403l9.74-9.735c2.595-2.595 6.802-2.595 9.397 0s2.595 6.797 0 9.392l-9.746 9.746c-2.593 2.605-6.821 2.593-9.391 0zm-67.686-31.926v-13.775c0-3.676 2.978-6.648 6.648-6.648 3.664 0 6.642 2.973 6.642 6.648v13.776c0 3.67-2.978 6.648-6.642 6.648-3.67-.001-6.648-2.979-6.648-6.649zm92.963 92.969c0-3.67 2.978-6.648 6.648-6.648h13.776c3.681 0 6.648 2.978 6.648 6.648s-2.967 6.642-6.648 6.642h-13.776c-3.67 0-6.648-2.972-6.648-6.642zm-132.022-11.141h27.924c3.675 0 6.642-2.967 6.642-6.642v-27.924h22.265v27.924c0 3.676 2.978 6.642 6.648 6.642h27.93v22.27h-27.93c-3.67 0-6.648 2.973-6.648 6.642v27.929h-22.265v-27.929c0-3.67-2.967-6.642-6.642-6.642h-27.924zm-.72 35.561h21.996v21.996c0 6.934 5.642 12.576 12.57 12.576h23.711c6.928 0 12.564-5.642 12.564-12.576v-21.996h22.001c6.94 0 12.576-5.636 12.576-12.564v-23.711c0-6.934-5.636-12.576-12.576-12.576h-22.001v-21.99c0-6.939-5.636-12.576-12.564-12.576h-23.711c-6.928 0-12.57 5.636-12.57 12.576v21.99h-21.996c-6.934 0-12.57 5.642-12.57 12.576v23.711c0 6.927 5.636 12.564 12.57 12.564zm220.314 233.192-39.191-.011c-31.553-.069-56.482-.132-87.349 18.669-14.662 8.923-26.849 20.904-36.263 35.646h-22.179c-9.414-14.742-21.596-26.723-36.258-35.646-32.98-20.074-59.441-18.658-93.437-18.658h-33.103v-139.572h25.18v95.055c0 3.67 2.978 6.648 6.648 6.648l22.185-.012c30.622-.063 52.744-.126 80.41 16.731 13.862 8.431 25.209 19.989 33.76 34.332 2.568 4.311 8.797 4.355 11.404-.006l.012.006c8.551-14.342 19.898-25.9 33.754-34.332 29.799-18.143 53.594-16.72 86.521-16.72h16.068c3.681 0 6.648-2.978 6.648-6.648v-95.055h25.192v139.573zm-309.304-190.732v139.573h9.426c33.61 0 60.317-1.516 93.437 18.658 9.758 5.945 18.423 13.239 25.906 21.807v-130.53c-8.426-13.633-19.469-24.665-32.822-32.788-27.666-16.857-49.777-16.811-80.41-16.731zm174.876 16.72c-13.359 8.134-24.391 19.172-32.817 32.811v130.506c7.477-8.557 16.142-15.862 25.906-21.807 30.873-18.801 55.79-18.744 87.349-18.669l15.508.012v-139.573h-9.426c-32.913 0-56.715-1.436-86.52 16.72zm141.07 21.15c3.67 0 6.648 2.972 6.648 6.642v152.863c0 3.67-2.978 6.648-6.648 6.648h-39.756c-32.891 0-56.744-1.409-86.515 16.72-13.856 8.437-25.208 19.99-33.76 34.337-1.195 2.012-3.367 3.247-5.705 3.247h-29.593c-2.344 0-4.51-1.235-5.716-3.247-8.54-14.348-19.892-25.9-33.749-34.337-27.684-16.851-49.788-16.794-80.41-16.731l-45.867.011c-3.664 0-6.642-2.978-6.642-6.648v-152.863c0-3.67 2.978-6.642 6.642-6.642h31.828v-44.518c0-3.67 2.978-6.642 6.648-6.642h16.074c33.999 0 60.454-1.423 93.437 18.658 12.81 7.797 23.717 17.915 32.554 30.176 8.831-12.261 19.738-22.379 32.548-30.176 30.873-18.801 55.796-18.738 87.349-18.669l22.15.012c3.681 0 6.648 2.972 6.648 6.642v44.518h31.835z" fill-rule="evenodd" fill="#1e347a"/></svg>