<?xml version="1.0"?>
<svg xmlns="http://www.w3.org/2000/svg" data-name="Layer 1" id="Layer_1" viewBox="0 0 128 128"><title/><path d="M2,106a2,2,0,0,0,0,4H3v12a6,6,0,0,0,6,6H22.6a21.63,21.63,0,0,1-4.54-4H9a2,2,0,0,1-2-2V110h6a29.62,29.62,0,0,1,.18-4H7V92H17.73c.67-1.35,1.38-2.68,2.1-4H7V74H26.79c.52-1.35,1-2.68,1.47-4H7V50c0-7.41,4.73-13,11-13s11,5.59,11,13v2H21a2,2,0,0,0,0,4h8V67.67c.43-1.38.83-2.76,1.19-4.14.26-1,.93-3.59,2.81-4.84V56h4v2.3c2.52,1,3.3,4.15,3.59,5.32.14.56.27,1.09.41,1.6V56H63V88H51.93c.77,1.31,1.52,2.64,2.24,4H63v14H58.86a26.27,26.27,0,0,1,.11,4h4v12a2,2,0,0,1-2,2H53.85a21.14,21.14,0,0,1-4.38,4h74.68a3.77,3.77,0,0,0,3.85-4L122.33,23.82A2,2,0,0,0,121.5,20h-10a2,2,0,0,0-.77,3.84L106,124H66.65a6,6,0,0,0,.35-2v-2H84a6,6,0,0,0,6-6v-3h8a4,4,0,0,0,4-4V98a2,2,0,0,0,0-4V86a2,2,0,0,0,0-4V77a7.82,7.82,0,0,0-7.64-8H94V6a6,6,0,0,0-6-6H22a6,6,0,0,0-6,6V25.35A6,6,0,0,0,12.81,34C7,36.29,3,42.4,3,50V70H2a2,2,0,0,0,0,4H3V88H2a2,2,0,0,0,0,4H3v14ZM114.72,24h3.61l1.58,28H113.4Zm-1.51,32h6.93l2,36H111.52Zm-1.88,40H122.4L124,124H110ZM63,52H41V50c0-7.41,4.73-13,11-13s11,5.59,11,13ZM50,31a2,2,0,1,1,2,2A2,2,0,0,1,50,31Zm36,83a2,2,0,0,1-2,2H67v-6h1a2,2,0,0,0,0-4H67V92h1a2,2,0,0,0,0-4H67V56h1a2,2,0,0,0,0-4H67V50c0-7.6-4-13.71-9.81-16A6,6,0,0,0,54,25.35V14a2,2,0,0,1,2-2H80a2,2,0,0,1,2,2V69h-.36A7.82,7.82,0,0,0,74,77v5a2,2,0,0,0,0,4v8a2,2,0,0,0,0,4v9a4,4,0,0,0,4,4h8Zm12-7H78V98H98Zm0-13H78V86H98ZM94.36,73A3.84,3.84,0,0,1,98,77v5H78V77a3.84,3.84,0,0,1,3.64-4ZM20,6a2,2,0,0,1,2-2H88a2,2,0,0,1,2,2V69H86V14a6,6,0,0,0-6-6H56a6,6,0,0,0-6,6V25.35A6,6,0,0,0,46.81,34C41,36.29,37,42.4,37,50v2H33V50c0-7.6-4-13.71-9.81-16A6,6,0,0,0,20,25.35ZM18,29a2,2,0,1,1-2,2A2,2,0,0,1,18,29Z"/><circle cx="13" cy="54" r="2"/><circle cx="57" cy="72" r="2"/><path d="M118.16,9.1c.81,1.9,1.12,2.88.51,3.62a2,2,0,1,0,3.08,2.55c2.23-2.7.94-5.73.09-7.74-.17-.39-.33-.78-.47-1.15-.46-1.29-.62-1.72.28-3.47a2,2,0,1,0-3.56-1.83c-1.57,3.06-1.19,4.69-.48,6.65C117.77,8.18,118,8.64,118.16,9.1Z"/><path d="M110.16,9.1c.81,1.9,1.12,2.88.51,3.62a2,2,0,1,0,3.08,2.55c2.23-2.7.94-5.73.09-7.74-.17-.39-.33-.78-.47-1.15-.46-1.29-.62-1.72.28-3.47a2,2,0,1,0-3.56-1.83c-1.57,3.06-1.19,4.69-.48,6.65C109.77,8.18,110,8.64,110.16,9.1Z"/><path d="M36.7,64.56c-.42-1.7-.86-2.56-1.31-2.56s-.9.84-1.33,2.53a98.79,98.79,0,0,1-4.4,13.08c-4.53,11-13.57,20.94-12.59,33.7.85,11,10,16.69,19,16.69,7.41,0,14.78-3.8,17.55-11.61,5.7-16.05-8.22-28.22-13.55-41.54A69.69,69.69,0,0,1,36.7,64.56ZM49.88,115c-2.34,6.6-8.66,8.95-13.78,8.95-6.76,0-14.35-4.07-15-13-.59-7.66,3.14-14.4,7.09-21.55a101.08,101.08,0,0,0,5.21-10.32c.74-1.8,1.42-3.57,2-5.32.32.84.65,1.67,1,2.52A85.47,85.47,0,0,0,43,88.62C48.26,97.33,53.25,105.56,49.88,115Z"/><path d="M29.79,98.16a2,2,0,0,0-2.62,1.05c-.52,1.22-4.95,12,.61,16.37a2,2,0,1,0,2.46-3.16c-2.47-1.92-.65-8.67.61-11.64A2,2,0,0,0,29.79,98.16Z"/><path d="M49,74a2,2,0,0,0,0-4H42.52c.41,1.12.84,2.21,1.3,3.36.09.21.18.43.27.64Z"/></svg>
