<svg width="44" height="44" viewBox="0 0 44 44" fill="none" xmlns="http://www.w3.org/2000/svg">
<g id="vuesax/bold/notification">
<g id="notification">
<path id="Vector" d="M35.4567 26.5651L33.6234 23.5217C33.2384 22.8434 32.8901 21.5601 32.8901 20.8084V16.1701C32.8901 11.8617 30.3601 8.14008 26.7117 6.39841C25.7584 4.71175 23.9984 3.66675 21.9817 3.66675C19.9834 3.66675 18.1867 4.74841 17.2334 6.45341C13.6584 8.23175 11.1834 11.9167 11.1834 16.1701V20.8084C11.1834 21.5601 10.8351 22.8434 10.4501 23.5034L8.59839 26.5651C7.86506 27.7934 7.70006 29.1501 8.15839 30.3967C8.59839 31.6251 9.64339 32.5784 11.0001 33.0367C14.5567 34.2467 18.2967 34.8334 22.0367 34.8334C25.7767 34.8334 29.5167 34.2467 33.0734 33.0551C34.3567 32.6334 35.3467 31.6617 35.8234 30.3967C36.3001 29.1317 36.1717 27.7384 35.4567 26.5651Z" fill="#15B5DB"/>
<path id="Vector_2" d="M27.1884 36.6851C26.4184 38.8117 24.3834 40.3334 22.0001 40.3334C20.5517 40.3334 19.1217 39.7467 18.1134 38.7017C17.5267 38.1517 17.0867 37.4184 16.8301 36.6667C17.0684 36.7034 17.3067 36.7217 17.5634 36.7584C17.9851 36.8134 18.4251 36.8684 18.8651 36.9051C19.9101 36.9967 20.9734 37.0517 22.0367 37.0517C23.0817 37.0517 24.1267 36.9967 25.1534 36.9051C25.5384 36.8684 25.9234 36.8501 26.2901 36.7951C26.5834 36.7584 26.8767 36.7217 27.1884 36.6851Z" fill="#15B5DB"/>
</g>
</g>
</svg>
